Coordinates
version=1
nRows=8
nColumns=34
inDegrees=yes

Units are S.I. units (second, meters, Newtons, ...)
If the header above contains a line with 'inDegrees', this indicates whether rotational values are in degrees (yes) or radians (no).

endheader
time	pelvis_tilt	pelvis_list	pelvis_rotation	pelvis_tx	pelvis_ty	pelvis_tz	hip_flexion_r	hip_adduction_r	hip_rotation_r	knee_angle_r	ankle_angle_r	subtalar_angle_r	mtp_angle_r	hip_flexion_l	hip_adduction_l	hip_rotation_l	knee_angle_l	ankle_angle_l	subtalar_angle_l	mtp_angle_l	lumbar_extension	lumbar_bending	lumbar_rotation	arm_flex_r	arm_add_r	arm_rot_r	elbow_flex_r	pro_sup_r	arm_flex_l	arm_add_l	arm_rot_l	elbow_flex_l	pro_sup_l
      0.00000000	     -5.93869972	     -5.73816902	    -61.38600187	      0.12556306	      1.00250654	     -0.10700179	    -10.23988065	     -5.72404939	      5.36180375	     14.19708574	     13.03142287	      0.15876702	      0.00000000	     -9.01472625	     -8.86280787	     -5.44256024	     10.19353590	     11.14245205	     -4.09781273	      0.00000000	    -14.21305935	      4.77130827	     -0.95468621	     10.46538616	     -2.65171988	     -6.11225294	     25.71727249	    116.92058419	     13.71358181	     -4.13963896	     22.87840492	     23.17472408	     98.60999356
      0.01666670	     -6.07994481	     -5.73682081	    -61.39711623	      0.12649823	      1.00245647	     -0.10682483	    -10.49413847	     -5.70403175	      5.14551819	     13.58596186	     12.77796445	      0.68867555	      0.00000000	     -9.09133028	     -8.96450118	     -5.64743457	      9.99258595	     11.01751259	     -3.83247416	      0.00000000	    -13.98067643	      5.00490664	     -1.09312814	     10.25136946	     -2.80791544	     -6.05704661	     25.80258893	    116.81264973	     13.58646940	     -4.21254568	     23.23040586	     23.28093779	     98.95178153
      0.03333330	     -6.15348599	     -6.21983872	    -61.37279278	      0.12761644	      1.00327391	     -0.10555358	    -11.97610749	     -5.54519845	      4.32618454	     11.67744090	     12.17798791	      2.17749000	      0.00000000	    -10.11287105	     -9.24846747	     -6.11434411	      9.05083854	     10.82131656	     -3.00605804	      0.00000000	    -14.26303443	      5.44917184	     -0.91265722	     10.42609336	     -3.09594466	     -4.72371644	     25.45353225	    116.69304647	     13.65693749	     -3.99740248	     24.56030425	     22.97764188	     99.97621009
      0.05000000	     -6.25041089	     -5.75782164	    -61.51693584	      0.12836868	      1.00278629	     -0.10467469	    -12.17894487	     -5.81417932	      4.26774626	     10.41005579	     11.79733673	      2.53575514	      0.00000000	     -9.99449203	     -9.01333343	     -6.32830369	      8.50260034	     10.47658291	     -2.81880413	      0.00000000	    -13.64136390	      5.30504541	     -0.78500344	     10.24073075	     -3.24789790	     -4.49499949	     25.11377933	    116.66146845	     13.52691582	     -4.10347200	     24.78190424	     23.03490653	    100.16741114
      0.06666670	     -5.88651208	     -6.10296696	    -61.54010482	      0.12943617	      1.00351369	     -0.10297790	    -13.56155790	     -6.03865155	      4.16026342	      8.99761099	     11.46973157	      2.77919706	      0.00000000	    -11.41561125	     -8.72936658	     -6.33534328	      7.02697901	      9.90951985	     -2.27735443	      0.00000000	    -13.95593266	      5.08586050	     -0.89089238	     10.44318610	     -3.26793176	     -2.81544888	     24.31480415	    116.59205559	     13.49176178	     -4.22883651	     26.04376345	     23.04946501	    101.15641489
      0.08333330	     -6.02230029	     -5.86053481	    -61.63279034	      0.12980156	      1.00315330	     -0.10229590	    -13.60705357	     -6.08511936	      4.22267154	      8.40905510	     11.49592977	      2.83216277	      0.00000000	    -11.47730859	     -8.68426576	     -6.17186224	      6.48254053	      9.88034108	     -2.11273784	      0.00000000	    -13.55002394	      5.07204778	     -0.83727170	     10.29249184	     -3.29968157	     -2.61234695	     24.04001157	    116.55243839	     13.47739032	     -4.17326224	     26.20114722	     22.99333982	    101.31959167
      0.10000000	     -5.73413493	     -6.00468616	    -61.55699115	      0.13005754	      1.00366826	     -0.10144743	    -14.41842673	     -6.23957803	      4.34657046	      7.56811053	     11.27447737	      2.45229726	      0.00000000	    -12.34703323	     -8.43501156	     -5.86971375	      5.42226341	      9.38118353	     -2.02778886	      0.00000000	    -13.74101837	      4.82091144	     -0.82739934	     10.50198495	     -3.38693056	     -1.33904907	     23.50796742	    116.37199441	     13.58603722	     -4.22958513	     27.03554140	     22.66034393	    102.21213981
      0.11666670	     -5.74769614	     -5.96859963	    -61.54663664	      0.12984642	      1.00375726	     -0.10141887	    -14.42152526	     -6.23933210	      4.32042139	      7.50136367	     11.30811788	      2.42789945	      0.00000000	    -12.34538547	     -8.44674568	     -5.85291730	      5.34465480	      9.40705746	     -2.01946034	      0.00000000	    -13.69766528	      4.82484034	     -0.77016875	     10.55771537	     -3.26992623	     -1.30767147	     23.52516688	    116.37193393	     13.62280238	     -4.15690252	     27.04644331	     22.68278787	    102.22281122
